<svg width="26" height="25" viewBox="0 0 26 25" fill="none" xmlns="http://www.w3.org/2000/svg">
<g clip-path="url(#clip0_346_647)">
<path d="M15.6931 17.0324H20.709L19.2996 15.623C18.9174 15.2407 18.7026 14.7223 18.7026 14.1818V11.0133C18.7026 8.39258 17.0277 6.16305 14.6899 5.33676V4.99426C14.6899 3.88619 13.7917 2.98792 12.6836 2.98792C11.5755 2.98792 10.6773 3.88619 10.6773 4.99426V5.33676C8.33947 6.16305 6.66455 8.39258 6.66455 11.0133V14.1818C6.66455 14.7223 6.44982 15.2407 6.0676 15.623L4.6582 17.0324H9.67408M15.6931 17.0324V18.0355C15.6931 19.6976 14.3457 21.0451 12.6836 21.0451C11.0215 21.0451 9.67408 19.6976 9.67408 18.0355V17.0324M15.6931 17.0324H9.67408" stroke="#373F41" stroke-width="1.50476" stroke-linecap="round" stroke-linejoin="round"/>
</g>
<defs>
<clipPath id="clip0_346_647">
<rect width="24.8286" height="24.0762" fill="white" transform="translate(0.595337 0.780945)"/>
</clipPath>
</defs>
</svg>
