<svg width="78" height="86" viewBox="0 0 78 86" fill="none" xmlns="http://www.w3.org/2000/svg">
<path d="M48.3331 33.6667L38.9998 38.3333M38.9998 38.3333L29.6665 33.6667M38.9998 38.3333V50M76.3331 19.6667L66.9998 24.3333M76.3331 19.6667L66.9998 15M76.3331 19.6667V31.3333M48.3331 5.66667L38.9998 1L29.6665 5.66667M1.6665 19.6667L10.9998 15M1.6665 19.6667L10.9998 24.3333M1.6665 19.6667V31.3333M38.9998 85L29.6665 80.3333M38.9998 85L48.3331 80.3333M38.9998 85V73.3333M10.9998 71L1.6665 66.3333V54.6667M66.9998 71L76.3331 66.3333V54.6667" stroke="#111827" stroke-width="2" stroke-linecap="round" stroke-linejoin="round"/>
</svg>
