<svg width="25" height="25" viewBox="0 0 25 25" fill="none" xmlns="http://www.w3.org/2000/svg">
<path d="M21.7238 14.0785C18.9357 15.2071 15.8881 15.8285 12.6953 15.8285C9.50246 15.8285 6.45481 15.2071 3.66669 14.0785M16.708 6.79999V4.79364C16.708 3.68557 15.8097 2.78729 14.7016 2.78729H10.6889C9.58083 2.78729 8.68256 3.68557 8.68256 4.79364V6.79999M12.6953 12.819H12.7053M5.67304 20.8444H19.7175C20.8256 20.8444 21.7238 19.9462 21.7238 18.8381V8.80634C21.7238 7.69826 20.8256 6.79999 19.7175 6.79999H5.67304C4.56496 6.79999 3.66669 7.69826 3.66669 8.80634V18.8381C3.66669 19.9462 4.56496 20.8444 5.67304 20.8444Z" stroke="#373F41" stroke-width="1.50476" stroke-linecap="round" stroke-linejoin="round"/>
</svg>
